<svg width="48" height="48" viewBox="0 0 48 48" fill="none" xmlns="http://www.w3.org/2000/svg">
<path d="M15 35C14.5 35 14 34.8 13.6 34.4C12.8 33.6 12.8 32.4 13.6 31.6L39.6 5.6C40.4 4.8 41.6 4.8 42.4 5.6C43.2 6.4 43.2 7.6 42.4 8.4L16.4 34.4C16 34.8 15.5 35 15 35Z" fill="#BCFFBF"/>
<path d="M14 35C13.7 35 13.5 34.9 13.3 34.7C12.9 34.3 12.9 33.7 13.3 33.3L40.3 6.3C40.7 5.9 41.3 5.9 41.7 6.3C42.1 6.7 42.1 7.3 41.7 7.7L14.7 34.7C14.5 34.9 14.3 35 14 35Z" fill="#00FF29"/>
<path d="M8.3 38.3008L9.7 39.7008L6.4 43.0008L5 41.6008L8.3 38.3008Z" fill="#90A4AE"/>
<path d="M14.5 30.6992L17.3 33.4992L7.8 42.9992L5 40.1992L14.5 30.6992Z" fill="#90A4AE"/>
<path d="M12.1 33.0992L14.9 35.8992L7.8 42.9992L5 40.1992L12.1 33.0992ZM18 27.1992L14.1 31.0992L16.9 33.8992L18 32.7992V27.1992Z" fill="#37474F"/>
<path d="M11 32L14 35L12 37L9 34L11 32Z" fill="#37474F"/>
</svg>
